<svg data-v-423bf9ae="" xmlns="http://www.w3.org/2000/svg" viewBox="0 0 269.5882682864733 60" class="font"><!----><!----><defs data-v-423bf9ae=""><linearGradient data-v-423bf9ae="" gradientTransform="rotate(25)" id="5cbf530a-d530-4337-b2b8-2b8f68319cb2" x1="0%" y1="0%" x2="100%" y2="0%"><stop data-v-423bf9ae="" offset="0%" style="stop-color: rgb(65, 226, 150); stop-opacity: 1;"></stop><stop data-v-423bf9ae="" offset="100%" style="stop-color: rgb(0, 196, 238); stop-opacity: 1;"></stop></linearGradient></defs><g data-v-423bf9ae="" id="b1b426ef-fb65-4221-b06b-8693aee5c3e6" fill="url(#5cbf530a-d530-4337-b2b8-2b8f68319cb2)" transform="matrix(5.9656622367573275,0,0,5.9656622367573275,0.17896864909712917,-3.8925954046560634)"><path d="M1.26 1.83L1.26 3.61L-0.03 3.61L-0.03 5.08L1.26 5.08L1.26 8.06C1.26 9.79 2.24 10.64 3.74 10.58C4.26 10.57 4.66 10.49 5.15 10.29L4.68 8.83C4.42 8.96 4.12 9.04 3.85 9.04C3.32 9.04 2.95 8.72 2.95 8.06L2.95 5.08L4.87 5.08L4.87 3.61L2.97 3.61L2.97 1.65ZM6.15 3.60L6.15 10.50L7.85 10.50L7.85 6.86C7.85 5.59 8.68 5.11 9.58 5.11C10.14 5.11 10.46 5.26 10.81 5.56L11.58 4.07C11.20 3.70 10.51 3.42 9.80 3.42C9.10 3.42 8.39 3.54 7.85 4.40L7.73 3.60ZM17.64 4.55C17.25 3.86 16.37 3.43 15.44 3.43C13.43 3.42 11.84 4.66 11.84 7.04C11.84 9.46 13.36 10.72 15.40 10.71C16.17 10.70 17.25 10.30 17.64 9.49L17.72 10.50L19.33 10.50L19.33 3.60L17.70 3.60ZM15.60 4.96C18.28 4.96 18.28 9.14 15.60 9.14C14.46 9.14 13.55 8.36 13.55 7.04C13.55 5.73 14.46 4.96 15.60 4.96ZM26.07 3.58L25.12 5.89L24.07 8.78L23.00 5.87L22.05 3.58L20.19 3.58L23.14 10.53L24.99 10.53L27.93 3.58ZM35.60 7.66C35.87 4.82 34.43 3.39 32.12 3.39C29.88 3.39 28.45 4.90 28.45 7C28.45 9.21 29.86 10.68 32.24 10.68C33.29 10.68 34.48 10.32 35.21 9.56L34.12 8.48C33.73 8.89 32.90 9.13 32.27 9.13C31.07 9.13 30.32 8.51 30.21 7.66ZM30.24 6.24C30.49 5.35 31.25 4.90 32.17 4.90C33.15 4.90 33.85 5.35 33.96 6.24ZM36.92 0.71L36.92 10.50L38.61 10.50L38.61 0.71ZM40.11 0.71L40.11 10.50L41.80 10.50L41.80 0.71ZM45.01 3.57L45.01 10.50L43.30 10.50L43.30 3.57ZM43.15 1.65C43.15 2.98 45.16 2.98 45.16 1.65C45.16 0.32 43.15 0.32 43.15 1.65Z"></path></g><!----><!----></svg>